# xmcd
#
# Track frame offsets:
#	150
#	16942
#	30927
#	50721
#	65528
#	83434
#	99363
#	118936
#	129702
#	152224
#
# Disc length: 2241 seconds
#
# Revision: 0
# Processed by: cddbd v1.5.2PL0 Copyright (c) Steve Scherf et al.
# Submitted via: audiograbber 1.83.01
#
DISCID=7908bf0a
DTITLE=JazzCrew - On Broadway
DYEAR=2011
DGENRE=
TTITLE0=Baby Love
TTITLE1=On Broadway
TTITLE2=Da Fonk
TTITLE3=Mr. Bojangles
TTITLE4=I Was Made For Loving You
TTITLE5=Türlich Türlich
TTITLE6=Funky Tales
TTITLE7=Orange Colored Sky
TTITLE8=Forget Regret
TTITLE9=Mack The Knife
EXTD=Die Schülerband des TSG (Thomas-Strittmatter-Gymnasium) St. Georgen besteh
EXTD=t aus 14 MusikerInnen und Musikern.\n\nGesang: Sarah Kühn, Florian Fleig\n
EXTD=Piano: Elena Wisser\nGitarre: Annika Maier\nBass: Theresa Ziegler\nDrums: 
EXTD=Valentin Hembach\nAlt-Sax: Ferdinand Obergfell, Madleine Schlipf\nTenor SA
EXTD=x: Carina Scheerer, Marleen Hoffmann\nTrompete: David Kuner, Julian Binder
EXTD=\nPosaune: Pascal Weisser, Silvan Broghammer\n\nRecording and Mixing: AGON R
EXTD=ecording - Mastering: Klang and Licht Schmiede\nGrafik: Rüdiger Brix, Matthi
EXTD=as Jakob\n\nMusikalische Leitung: Matthias Jakob\n
EXTT0=
EXTT1=
EXTT2=
EXTT3=
EXTT4=
EXTT5=
EXTT6=
EXTT7=
EXTT8=
EXTT9=
PLAYORDER=
